<?xml version="1.0" encoding="UTF-8"?>
<svg width="21px" height="19px" viewBox="0 0 21 19" version="1.1" xmlns="http://www.w3.org/2000/svg" xmlns:xlink="http://www.w3.org/1999/xlink">
    <!-- Generator: Sketch 50.2 (55047) - http://www.bohemiancoding.com/sketch -->
    <title>print</title>
    <desc>Created with Sketch.</desc>
    <defs></defs>
    <g id="Page-1" stroke="none" stroke-width="1" fill="none" fill-rule="evenodd">
        <path d="M20.2481912,8.61812301 C19.7735294,8.15251481 19.2046324,7.91984055 18.5412794,7.91984055 L17.7353382,7.91984055 L17.7353382,4.75653531 C17.7353382,4.42712984 17.6510735,4.06448519 17.4830294,3.66925057 C17.3151176,3.27384282 17.1137206,2.96084055 16.8786618,2.73015718 L14.9638235,0.851883827 C14.7287647,0.621416856 14.4097059,0.423626424 14.0068235,0.25877221 C13.6036765,0.0940911162 13.2344118,0.0117289294 12.8983235,0.0117289294 L4.43382353,0.0117289294 C4.09791176,0.0117289294 3.81233824,0.126984055 3.57719118,0.357667426 C3.34217647,0.588220957 3.22451471,0.868330296 3.22451471,1.19790888 L3.22451471,7.91984055 L2.41844118,7.91984055 C1.75504412,7.91984055 1.18614706,8.15264465 0.711617647,8.61812301 C0.237176471,9.08347153 0,9.64161276 0,10.2924601 L0,15.4329772 C0,15.5402255 0.0399264706,15.6324556 0.119647059,15.7110957 C0.199455882,15.7891731 0.293955882,15.8282551 0.403014706,15.8282551 L3.22451471,15.8282551 L3.22451471,17.8052938 C3.22451471,18.134959 3.34204412,18.4150683 3.57719118,18.6456651 C3.81233824,18.8761321 4.09791176,18.9916469 4.43382353,18.9916469 L16.5257206,18.9916469 C16.8615,18.9916469 17.1474706,18.8761321 17.3823971,18.6456651 C17.6174559,18.4148952 17.7350735,18.134959 17.7350735,17.8052938 L17.7350735,15.8282551 L20.5565294,15.8282551 C20.6655441,15.8282551 20.7600441,15.7891731 20.8397647,15.7110957 C20.9194853,15.6324989 20.9593235,15.5402255 20.9593235,15.4329772 L20.9593235,10.2924601 C20.9595,9.64161276 20.7224118,9.08347153 20.2481912,8.61812301 Z M16.12275,17.4099727 L4.83688235,17.4099727 L4.83688235,14.246754 L16.12275,14.246754 L16.12275,17.4099727 Z M16.12275,9.50160137 L4.83688235,9.50160137 L4.83688235,1.59340319 L12.8983235,1.59340319 L12.8983235,3.57039863 C12.8983235,3.89993394 13.0160735,4.17991344 13.2508676,4.41064009 C13.4859265,4.64132346 13.7714118,4.75657859 14.1075,4.75657859 L16.12275,4.75657859 L16.12275,9.50160137 Z M19.1080588,10.8484374 C18.9486176,11.0048519 18.7596176,11.0833622 18.5412794,11.0833622 C18.3229412,11.0833622 18.1339412,11.0048952 17.9744559,10.8484374 C17.8150588,10.6921959 17.7353382,10.5066105 17.7353382,10.2924169 C17.7353382,10.0782232 17.8150588,9.89285421 17.9744559,9.73639636 C18.1338971,9.57985194 18.3228971,9.50155809 18.5412794,9.50155809 C18.7595735,9.50155809 18.9485735,9.57985194 19.1080588,9.73639636 C19.2674559,9.89281093 19.3474853,10.0782232 19.3474853,10.2924169 C19.3474853,10.5066105 19.2676324,10.6921959 19.1080588,10.8484374 Z" id="print" fill="#19B293" fill-rule="nonzero"></path>
    </g>
</svg>